<svg width="32" height="32" viewBox="0 0 32 32" fill="none" xmlns="http://www.w3.org/2000/svg">
<rect width="32" height="32" fill="#3D00A3"/>
<path fill-rule="evenodd" clip-rule="evenodd" d="M9.35715 8.02604C8.62178 7.56756 7.73877 8.1997 7.73877 9.18462V24.1326C7.73877 24.8555 8.23319 25.4416 8.84308 25.4416H11.0413C11.6511 25.4416 12.1454 24.8558 12.1456 24.133L12.1491 10.5578C12.1493 10.0715 11.922 9.62516 11.5589 9.39878L9.35715 8.02604Z" fill="white"/>
<path fill-rule="evenodd" clip-rule="evenodd" d="M8.84387 7.67858C8.13144 8.18666 7.77523 8.4407 7.77834 8.81214C7.78145 9.18358 8.14185 9.42927 8.86266 9.92065L18.5878 16.5504C18.5918 16.5532 18.597 16.5516 18.5993 16.5468C18.6001 16.5453 18.6005 16.5436 18.6005 16.5418L18.617 13.7518C18.6192 13.3822 18.6203 13.1974 18.5463 13.045C18.4723 12.8926 18.3366 12.8001 18.0653 12.6151L10.3771 7.37395C10.1014 7.18599 9.96357 7.09201 9.81249 7.09377C9.66141 7.09553 9.52516 7.19271 9.25265 7.38705L8.84387 7.67858Z" fill="white"/>
<path fill-rule="evenodd" clip-rule="evenodd" d="M9.56444 7.17332C9.49783 7.2212 9.44222 7.28765 9.40251 7.36682C9.26814 7.63477 9.34444 7.98049 9.57255 8.13719L18.5971 14.3367C18.5997 14.3386 18.6032 14.3375 18.6047 14.3344C18.6052 14.3333 18.6055 14.3322 18.6055 14.331L18.6155 12.6344C18.6192 12.0044 18.3367 11.4201 17.875 11.103L11.5982 6.79103C11.1251 6.46604 10.5391 6.47289 10.0715 6.80889L9.56444 7.17332Z" fill="white"/>
<path fill-rule="evenodd" clip-rule="evenodd" d="M22.6283 23.999C23.3639 24.4643 24.252 23.8316 24.2522 22.842L24.2557 7.84781C24.2559 7.12341 23.7613 6.53607 23.1511 6.53609L20.9527 6.53616C20.3428 6.53618 19.8484 7.12306 19.8482 7.84715L19.845 21.451C19.8449 21.9356 20.0699 22.3808 20.4302 22.6087L22.6283 23.999Z" fill="white"/>
<path fill-rule="evenodd" clip-rule="evenodd" d="M23.4625 24.1412C23.9102 23.8128 24.134 23.6485 24.199 23.4353C24.2444 23.286 24.242 23.1224 24.1924 22.975C24.1215 22.7644 23.8931 22.6091 23.4364 22.2984L13.4093 15.4796C13.4053 15.4768 13.4001 15.4784 13.3978 15.4831C13.397 15.4847 13.3966 15.4864 13.3966 15.4882L13.3802 18.2694C13.378 18.6394 13.3769 18.8244 13.451 18.9769C13.5252 19.1294 13.6611 19.2219 13.9329 19.4067L21.6316 24.6423C21.9027 24.8266 22.0382 24.9188 22.1869 24.9183C22.3356 24.9178 22.4707 24.8247 22.7408 24.6385L23.4625 24.1412Z" fill="white"/>
<path fill-rule="evenodd" clip-rule="evenodd" d="M22.439 24.8265C22.5056 24.7788 22.5612 24.7125 22.601 24.6335C22.7356 24.3656 22.6592 24.0197 22.4309 23.8632L13.3852 17.6647C13.3825 17.6628 13.3791 17.6639 13.3775 17.6671C13.377 17.6681 13.3767 17.6692 13.3767 17.6704L13.3668 19.3653C13.3631 19.996 13.6462 20.5808 14.1087 20.8977L20.4035 25.2112C20.8759 25.5349 21.4606 25.5281 21.9274 25.1933L22.439 24.8265Z" fill="white"/>
</svg>
